<?xml version="1.0" encoding="UTF-8" standalone="no"?>
<svg
   xmlns:dc="http://purl.org/dc/elements/1.1/"
   xmlns:cc="http://creativecommons.org/ns#"
   xmlns:rdf="http://www.w3.org/1999/02/22-rdf-syntax-ns#"
   xmlns:svg="http://www.w3.org/2000/svg"
   xmlns="http://www.w3.org/2000/svg"
   xmlns:sodipodi="http://sodipodi.sourceforge.net/DTD/sodipodi-0.dtd"
   xmlns:inkscape="http://www.inkscape.org/namespaces/inkscape"
   width="400mm"
   height="400mm"
   viewBox="0 0 400 400"
   version="1.1"
   id="svg8"
   inkscape:version="1.0.2 (1.0.2+r75+1)"
   sodipodi:docname="logoWhite.svg">
  <defs
     id="defs2" />
  <sodipodi:namedview
     id="base"
     pagecolor="#7b7b7b"
     bordercolor="#666666"
     borderopacity="1.0"
     inkscape:pageopacity="0"
     inkscape:pageshadow="2"
     inkscape:zoom="0.175"
     inkscape:cx="419.0489"
     inkscape:cy="882.59731"
     inkscape:document-units="mm"
     inkscape:current-layer="layer1"
     inkscape:document-rotation="0"
     showgrid="false"
     inkscape:window-width="1280"
     inkscape:window-height="999"
     inkscape:window-x="0"
     inkscape:window-y="0"
     inkscape:window-maximized="1" />
  <metadata
     id="metadata5">
    <rdf:RDF>
      <cc:Work
         rdf:about="">
        <dc:format>image/svg+xml</dc:format>
        <dc:type
           rdf:resource="http://purl.org/dc/dcmitype/StillImage" />
        <dc:title></dc:title>
      </cc:Work>
    </rdf:RDF>
  </metadata>
  <g
     inkscape:label="Layer 1"
     inkscape:groupmode="layer"
     id="layer1">
    <path
       style="fill:#ffffff;stroke-width:0.227157"
       d="m 59.69691,387.53588 c -6.072798,-1.24074 -10.7661,-5.49152 -12.323465,-11.16154 -0.643248,-2.34186 -0.646981,-5.98811 -0.0086,-8.3126 0.969992,-3.53153 3.540633,-6.80206 7.011144,-8.92004 5.179138,-3.1607 13.07287,-3.36341 18.654762,-0.47904 1.512257,0.7814 4.943546,3.63036 4.943546,4.10454 0,0.13469 -0.506105,0.59678 -1.124677,1.02682 l -1.124672,0.78183 -1.674036,-1.46017 c -2.806641,-2.44803 -5.780953,-3.52381 -9.769151,-3.5333 -4.212792,-0.0107 -7.228787,1.10678 -10.107066,3.74259 -2.827814,2.58959 -3.978379,5.24189 -3.978379,9.17111 0,2.32315 0.438746,3.99078 1.583797,6.0198 3.189929,5.65249 11.148769,8.17633 17.954952,5.6937 1.642545,-0.59914 3.925268,-2.00464 5.046433,-3.10715 0.380273,-0.37397 0.781976,-0.67991 0.892668,-0.67991 0.342529,0 2.281234,1.41067 2.290949,1.66698 0.01324,0.34976 -2.251064,2.28992 -3.760352,3.22204 -1.633704,1.00895 -3.781338,1.82345 -5.904349,2.23929 -2.038489,0.3993 -6.614935,0.39134 -8.603584,-0.0143 z m 49.13264,0.0125 c -5.84384,-1.2269 -11.005505,-5.97295 -12.397119,-11.39887 -0.561297,-2.18857 -0.513717,-5.6723 0.10716,-7.84444 1.222084,-4.27556 4.538229,-8.15928 8.506479,-9.96242 2.93396,-1.33315 4.56369,-1.68119 7.76844,-1.65893 5.57123,0.0388 10.12724,2.02789 13.30435,5.80882 2.25751,2.68658 3.29718,5.28687 3.54655,8.87014 0.24219,3.48061 -0.68809,6.72926 -2.74833,9.59751 -2.10494,2.93051 -5.03336,5.03839 -8.57278,6.1708 -1.60167,0.51245 -2.33544,0.61169 -4.94127,0.66842 -2.06195,0.0448 -3.55394,-0.0369 -4.57349,-0.25103 z m 7.36438,-2.8671 c 3.79234,-0.90661 7.17814,-3.41475 8.73775,-6.47271 2.67783,-5.25053 1.79061,-10.90655 -2.31665,-14.76864 -2.90706,-2.73354 -5.75527,-3.88534 -9.68281,-3.91566 -3.89032,-0.03 -6.94814,1.15716 -9.77356,3.79463 -2.62097,2.44658 -3.877144,5.44487 -3.860224,9.21381 0.0144,3.18809 0.903984,5.52368 3.029784,7.95365 1.14437,1.30812 3.4844,2.99657 4.93526,3.56107 2.58772,1.00674 6.27563,1.26853 8.93045,0.63385 z m 32.22982,1.93498 c 0.0669,-0.33153 1.10495,-7.03905 2.30674,-14.90556 1.46027,-9.5584 2.2759,-14.30277 2.45885,-14.30277 0.15057,0 3.1777,5.47351 6.72697,12.16338 3.54927,6.68987 6.50619,12.16264 6.57094,12.16174 0.0648,0 2.97094,-5.43054 6.45827,-12.06585 3.48729,-6.63533 6.43398,-12.11794 6.54818,-12.18368 0.11421,-0.0658 0.26215,-0.0688 0.32876,-0.007 0.0666,0.062 1.14801,6.77943 2.40308,14.92751 l 2.28193,14.81475 h -1.54559 -1.54561 l -1.47956,-10.13798 c -0.81377,-5.57589 -1.55386,-10.36805 -1.64466,-10.64923 -0.1333,-0.41279 -1.24857,1.53957 -5.79119,10.13799 -3.88534,7.35429 -5.74128,10.64929 -5.99835,10.64929 -0.25587,0 -2.1719,-3.3538 -6.12996,-10.72981 -3.16674,-5.9014 -5.77871,-10.71007 -5.80437,-10.68599 -0.0447,0.042 -3.14698,21.02916 -3.14698,21.28949 0,0.0693 -0.70181,0.12629 -1.55956,0.12629 h -1.55957 l 0.12168,-0.60281 z m 56.6702,-14.32304 v -14.92583 l 6.65024,0.0872 c 6.24504,0.0818 6.73318,0.11772 8.01143,0.58665 3.74053,1.37251 5.59453,4.18104 5.28399,8.00433 -0.23343,2.87413 -1.64587,4.87316 -4.26591,6.0375 -1.94794,0.86567 -3.76449,1.10358 -8.44101,1.10553 l -3.94305,0.002 v 7.01439 7.01436 h -1.64785 -1.64784 z m 12.78942,-2.1852 c 1.33406,-0.31281 2.9076,-1.53996 3.48043,-2.71432 0.88883,-1.82212 0.39388,-4.32727 -1.1153,-5.645 -1.37805,-1.20324 -2.15635,-1.35964 -7.20957,-1.44882 l -4.64929,-0.0822 v 5.05144 5.05137 l 1.58902,0.0917 c 2.43366,0.14076 6.70793,-0.0239 7.90471,-0.30449 z m 20.87373,17.04672 c 0,-0.035 3.37252,-6.71791 7.49444,-14.85074 5.78821,-11.42051 7.59703,-14.80035 7.94496,-14.84563 0.37984,-0.0494 1.27946,1.60184 5.73198,10.52157 2.90479,5.81912 6.26137,12.52834 7.4591,14.90941 l 2.1777,4.32919 h -1.70956 -1.70953 l -2.51329,-4.8772 -2.5133,-4.87717 h -6.97871 -6.97869 l -2.47422,4.87717 -2.47419,4.8772 h -1.72834 c -0.95059,0 -1.72835,-0.0287 -1.72835,-0.0637 z m 20.02751,-14.45816 c -0.49613,-0.99462 -1.40297,-2.7948 -2.0152,-4.0004 -0.61219,-1.20559 -1.42705,-2.83316 -1.81081,-3.6168 -0.61788,-1.26168 -0.72707,-1.37608 -0.95352,-0.99924 -0.14064,0.23407 -1.39738,2.67539 -2.7927,5.42521 l -2.53695,4.99962 h 5.50568 5.50565 z m 29.87872,-0.3836 c 0,-12.74758 0.0485,-14.90557 0.33515,-14.90557 0.18432,0 5.08368,5.09585 10.88754,11.32412 l 10.55242,11.32414 0.061,-11.32414 0.0608,-11.32412 h 1.64571 1.64574 v 14.90557 c 0,14.05448 -0.0234,14.90484 -0.41195,14.89288 -0.24162,-0.007 -4.74338,-4.65471 -10.88756,-11.23945 l -10.47559,-11.22677 -0.061,11.23944 -0.061,11.23946 h -1.64574 -1.64572 z m 54.6144,7.71356 v -7.19202 l -5.06127,-7.6227 c -2.78367,-4.19247 -5.06123,-7.66358 -5.06123,-7.71356 0,-0.05 0.78872,-0.0909 1.75271,-0.0909 h 1.75276 l 3.47026,5.20599 c 1.90867,2.86329 3.75086,5.63102 4.09378,6.15051 l 0.62348,0.94453 3.99211,-6.0957 3.99207,-6.09572 1.81405,-0.0639 c 0.99773,-0.0352 1.81402,-0.0249 1.81402,0.0234 0,0.0481 -2.27602,3.57858 -5.05785,7.84562 l -5.05784,7.75822 -0.004,7.06919 -0.004,7.06918 h -1.53013 -1.53013 v -7.192 z M 25.478685,373.26516 c -1.470373,-0.45078 -2.118659,-1.24883 -2.118659,-2.60801 0,-1.11897 1.246585,-2.29056 2.437157,-2.29056 1.78159,0 2.741797,0.92328 2.741797,2.63637 0,0.70748 -0.149858,1.0441 -0.68811,1.54527 -0.378471,0.3524 -0.846499,0.64074 -1.040083,0.64074 -0.193582,0 -0.493037,0.0416 -0.665464,0.0924 -0.172435,0.0507 -0.472428,0.0434 -0.666638,-0.0161 z m 348.637415,-0.0986 c -2.06538,-0.78345 -2.47135,-3.11591 -0.76041,-4.36908 1.3107,-0.96001 3.5767,-0.25349 4.06617,1.26789 0.61078,1.89819 -1.43001,3.81268 -3.30576,3.10119 z M 43.895694,322.44483 c -8.754885,-1.47774 -16.603755,-6.90933 -20.589818,-14.24855 -1.235092,-2.27408 -1.991584,-4.15878 -2.595473,-6.46638 -0.458399,-1.75161 -0.49296,-2.62454 -0.577177,-14.57674 l -0.08956,-12.71358 0.540015,-0.98639 c 0.365744,-0.6681 0.843857,-1.13664 1.481619,-1.45201 0.517904,-0.25608 5.90065,-1.67857 11.961665,-3.16108 11.821449,-2.89148 11.936696,-2.90743 12.571014,-1.74005 0.228149,0.41986 0.296586,3.74656 0.299261,14.54768 0.0027,10.38713 0.07779,14.23634 0.291214,14.90555 0.403762,1.26599 2.118787,2.81858 3.515809,3.1828 0.660495,0.17219 1.928435,0.25471 3.196288,0.20802 1.849215,-0.068 2.239767,-0.15699 3.253211,-0.74078 0.71332,-0.41089 1.422902,-1.07184 1.864159,-1.73644 l 0.712444,-1.07309 V 280.5943 c 0,-13.94188 -0.04583,-15.98156 -0.39016,-17.34791 -0.533666,-2.11787 -1.252668,-3.45469 -2.530814,-4.70532 -0.594509,-0.58174 -7.675892,-5.76132 -15.736411,-11.51016 -10.169695,-7.25314 -15.141411,-10.93824 -16.243053,-12.03963 -2.75946,-2.75882 -4.003101,-5.20925 -4.534269,-8.93411 -0.175026,-1.22753 -0.22952,-6.84758 -0.168465,-17.37744 0.08628,-14.87017 0.112124,-15.64613 0.580526,-17.42636 2.062678,-7.83866 7.234536,-14.15782 14.690622,-17.94949 4.516338,-2.29672 8.085787,-3.04087 15.504281,-3.2323 10.281115,-0.2653 15.251593,0.56243 20.83361,3.46942 7.408426,3.85815 12.529906,10.39824 14.385339,18.36997 0.364342,1.56538 0.434581,2.87925 0.439406,8.21997 0.0055,5.96794 -0.02303,6.40233 -0.465063,7.10108 -0.258941,0.40935 -0.741452,0.93207 -1.072239,1.16162 -0.669944,0.46494 -22.229393,5.86143 -23.452093,5.87027 -0.825721,0.005 -1.425472,-0.42818 -1.603605,-1.16075 -0.06392,-0.26283 -0.143526,-4.07822 -0.176907,-8.47864 l -0.06073,-8.00077 -0.635703,-1.00691 c -1.228929,-1.94652 -2.722399,-2.6099 -5.875673,-2.6099 -1.635567,0 -2.315711,0.10035 -3.149297,0.46538 -1.280597,0.56049 -2.523019,1.85225 -2.895784,3.01077 -0.442137,1.37411 -0.376168,21.24735 0.07719,23.25413 0.403372,1.78557 1.207869,3.37854 2.281048,4.51667 0.411979,0.43691 7.6421,5.59915 16.066942,11.4717 10.966595,7.64428 15.706754,11.07863 16.686825,12.09004 1.786395,1.84346 2.848639,3.89755 3.622857,7.00556 l 0.627934,2.52081 0.08448,19.50875 c 0.05274,12.17146 -0.0055,20.33316 -0.153752,21.70073 -0.868491,7.99197 -5.537125,15.22934 -12.771502,19.7985 -2.945281,1.86018 -7.347221,3.50151 -10.994941,4.09958 -2.618381,0.4293 -16.254119,0.42582 -18.805262,-0.004 z m 61.878666,-1.26914 c -0.44103,-0.1463 -1.02367,-0.54432 -1.29473,-0.8847 l -0.49287,-0.61885 -0.0599,-72.87248 c -0.0654,-79.53473 -0.16088,-73.89353 1.26567,-74.76401 0.61297,-0.374 1.40824,-0.40064 11.96657,-0.40064 8.93383,0 11.46721,0.0619 12.05851,0.29425 1.5832,0.62226 1.4878,-1.36744 1.4878,31.03265 v 29.28781 l 7.59187,-0.0579 7.59186,-0.0579 0.11769,-29.48232 c 0.0647,-16.21528 0.20605,-29.64904 0.31403,-29.85279 0.10799,-0.20374 0.47874,-0.54898 0.82392,-0.7672 0.58459,-0.36955 1.42079,-0.39674 12.20405,-0.39674 11.38049,0 11.5877,0.007 12.24114,0.45893 0.36559,0.25241 0.79115,0.79495 0.94568,1.2056 0.40807,1.08439 0.40807,145.29976 0,146.38417 -0.15453,0.41067 -0.58002,0.95319 -0.94552,1.2056 -0.65288,0.45086 -0.86398,0.45895 -12.00574,0.45895 -12.35763,0 -12.5656,-0.0194 -13.23556,-1.2256 -0.29436,-0.53005 -0.342,-4.95344 -0.342,-31.75304 v -31.13721 h -7.65071 -7.65072 l -0.004,31.07152 c -0.003,24.22372 -0.0675,31.18762 -0.29426,31.59837 -0.15992,0.2898 -0.58974,0.73368 -0.95515,0.9864 -0.65013,0.44972 -0.90216,0.46056 -11.77033,0.50616 -8.21592,0.0345 -11.31464,-0.0226 -11.90785,-0.21919 z m 89.5502,-0.0488 c -0.51788,-0.17612 -0.9654,-0.32159 -0.99444,-0.3234 -0.029,-0.004 -0.21441,-0.29433 -0.41194,-0.65 -0.31984,-0.57592 -0.35916,-8.64205 -0.35916,-73.66193 0,-79.57455 -0.10096,-73.83229 1.31029,-74.53557 0.54047,-0.26934 2.4934,-0.32106 12.12625,-0.32106 11.28468,0 11.49345,0.007 12.14667,0.45895 0.36555,0.25242 0.79106,0.79493 0.9456,1.2056 0.40807,1.08439 0.40807,145.29977 0,146.38418 -0.15463,0.41067 -0.57991,0.95319 -0.94533,1.20559 -0.64969,0.44881 -0.90952,0.46004 -11.77033,0.50835 -9.24799,0.0411 -11.26352,-0.004 -12.04761,-0.27071 z m 47.55216,0 c -0.5179,-0.17558 -0.96539,-0.32062 -0.99443,-0.32244 -0.0289,-0.004 -0.21442,-0.29433 -0.41195,-0.65 -0.31984,-0.57591 -0.35918,-8.63984 -0.35918,-73.64072 0,-54.69438 0.068,-73.13319 0.2717,-73.54925 0.14943,-0.30537 0.54668,-0.72921 0.88276,-0.94188 0.56827,-0.3596 1.87333,-0.39147 18.61973,-0.45506 18.73387,-0.0711 21.28834,0.0161 24.80855,0.84008 9.51624,2.22941 17.45257,9.13241 20.48785,17.82031 1.46541,4.19447 1.43182,3.59184 1.43182,25.68629 0,14.99193 -0.0744,20.56433 -0.29008,21.71752 -1.51179,8.08489 -6.44363,14.7325 -14.11039,19.01943 l -1.45312,0.8125 0.55914,1.58364 c 0.967,2.73885 19.82514,59.20499 19.96859,59.7912 0.23784,0.97189 -0.15559,1.82012 -1.03732,2.2363 -0.73746,0.34811 -1.7904,0.38326 -11.47758,0.38359 -6.90847,0 -11.02404,-0.0838 -11.68307,-0.23822 -1.15216,-0.27015 -2.57764,-1.26982 -3.04795,-2.13756 -0.1738,-0.32067 -4.06466,-12.31452 -8.64629,-26.65295 l -8.33025,-26.06989 -0.11894,26.94669 c -0.0656,14.82067 -0.14657,26.7494 -0.18013,26.50829 -0.0565,-0.40521 -0.0831,-0.39848 -0.35169,0.0886 -0.16001,0.28979 -0.58979,0.73366 -0.9552,0.98639 -0.64983,0.44947 -0.90564,0.46059 -11.65264,0.50796 -9.12676,0.0402 -11.14775,-0.005 -11.92988,-0.27069 z m 34.03167,-83.84104 c 1.10381,-0.28552 2.69527,-1.57323 3.34726,-2.70838 l 0.52155,-0.90805 0.0658,-17.18372 c 0.0723,-18.89516 0.0917,-18.60248 -1.3455,-20.21744 -1.34435,-1.51145 -2.24221,-1.72691 -7.19236,-1.72691 h -4.35757 v 21.48153 21.48156 l 4.06077,-0.004 c 2.23342,0 4.43846,-0.0989 4.90008,-0.21833 z m 63.89756,83.86789 c -0.38843,-0.16363 -0.97106,-0.5647 -1.29476,-0.89118 l -0.58849,-0.59362 -0.11778,-61.52258 -0.11779,-61.5226 -8.90613,-0.10968 -8.90614,-0.10967 -0.68668,-0.71584 -0.6867,-0.71588 v -10.7921 c 0,-10.30235 0.0217,-10.82382 0.45858,-11.49106 0.30758,-0.46968 0.75131,-0.77487 1.35273,-0.93037 1.24773,-0.32263 60.571,-0.32263 61.81872,0 0.60142,0.15557 1.04516,0.46069 1.35271,0.93037 0.43693,0.66724 0.45774,1.18871 0.45858,11.49106 v 10.7921 l -0.68666,0.71588 -0.68668,0.71584 -9.02385,0.10967 -9.02385,0.10968 -0.11779,61.59504 c -0.12565,65.6929 -0.0568,62.2201 -1.24125,62.85044 -0.79669,0.42399 -22.36789,0.50204 -23.35873,0.0845 z M 23.669003,142.05743 c -0.551651,-0.22824 -0.819271,-0.53249 -1.010551,-1.1488 -0.187859,-0.60539 -0.241015,-17.3964 -0.191255,-60.424772 l 0.06891,-59.58647 0.660497,-0.529019 0.660501,-0.529008 15.935655,0.0028 c 14.63759,0.0028 16.108276,0.03614 18.054345,0.412188 4.649886,0.898313 8.601862,2.866359 11.909866,5.93096 3.132994,2.902465 5.220066,6.173545 6.400599,10.031718 l 0.522067,1.706206 0.06723,42.30553 c 0.04736,29.810817 -0.0086,42.726277 -0.189611,43.730277 -0.975968,5.4146 -4.302406,10.52858 -8.985872,13.81472 -2.781092,1.95133 -5.136591,3.00873 -8.900328,3.99543 -1.706171,0.44731 -2.311788,0.46515 -18.008607,0.53076 -13.617307,0.0568 -16.364365,0.0179 -16.99342,-0.24259 z m 27.82213,-18.55947 c 1.272129,-0.32357 2.378851,-1.14032 2.944757,-2.17321 0.462762,-0.84463 0.468641,-1.3488 0.468641,-40.217436 0,-43.190201 0.10685,-40.120995 -1.443225,-41.455806 -1.168092,-1.005878 -2.020561,-1.180187 -5.771811,-1.180187 h -3.378262 v 42.488167 c 0,23.368452 0.07063,42.553922 0.156936,42.634292 0.258676,0.24086 6.007612,0.16236 7.02296,-0.0957 z m 41.868737,18.65657 c -0.277471,-0.10432 -0.674719,-0.41587 -0.882784,-0.69249 -0.345278,-0.45899 -0.377651,-5.73823 -0.370817,-60.459979 0.0064,-46.785554 0.07045,-60.033516 0.294268,-60.304896 0.708652,-0.859456 0.665188,-0.857804 22.739433,-0.857804 h 21.42436 l 0.6605,0.529008 0.66049,0.529028 v 9.109666 9.109665 l -0.53604,0.499299 -0.53605,0.499269 -11.41084,0.06091 -11.41085,0.0609 v 12.597922 12.597885 l 9.35742,9.17e-4 c 5.7576,6.05e-4 9.69687,0.08898 10.23981,0.229395 1.58718,0.410426 1.58937,0.424306 1.58937,10.050542 0,5.611383 -0.0866,8.726446 -0.25215,9.064698 -0.56091,1.146301 -0.54475,1.144532 -11.10622,1.213137 l -9.82823,0.06394 v 17.965688 17.96529 h 11.2864 11.28639 l 0.6605,0.52887 0.66049,0.52883 0.0668,8.72386 c 0.0483,6.30864 -0.0102,8.89596 -0.20971,9.34548 -0.58345,1.31158 0.36187,1.25983 -22.73871,1.24465 -11.62669,-0.007 -21.366386,-0.0991 -21.64385,-0.20348 z m 77.92314,-0.13075 c -0.44746,-0.20552 -0.88062,-0.65501 -1.10421,-1.14581 -0.40345,-0.88557 -22.52411,-118.103855 -22.52411,-119.356107 0,-0.574866 0.15946,-0.890598 0.62028,-1.228089 0.60747,-0.444965 0.84779,-0.454322 11.66432,-0.454322 12.03978,0 12.02978,-9.18e-4 12.64991,1.24396 0.2414,0.484592 8.00727,73.198451 8.01989,75.092267 0.003,0.378358 0.57948,0.538751 0.78855,0.219194 0.0591,-0.09035 1.82118,-16.785184 3.9156,-37.099501 2.48411,-24.09437 3.93209,-37.260627 4.165,-37.871397 0.62063,-1.627472 0.27508,-1.584523 12.74739,-1.584523 10.81651,0 11.05682,0.0083 11.66432,0.454322 0.44621,0.326822 0.62025,0.657277 0.62025,1.1777 0,0.39786 -5.02535,27.386422 -11.16746,59.97457 -8.79596,46.668736 -11.2628,59.370786 -11.61646,59.814536 -0.8729,1.09523 -0.96757,1.10505 -10.64383,1.10316 -7.69045,-9.1e-4 -9.17468,-0.0529 -9.79944,-0.33996 z m 54.92783,-0.002 c -0.362,-0.18279 -0.75924,-0.57981 -0.88277,-0.88228 -0.14042,-0.34401 -0.22456,-22.91517 -0.22456,-60.284357 V 21.121205 l 0.68811,-0.640739 0.68813,-0.640739 h 9.57018 9.57017 l 0.68812,0.640739 0.68813,0.640739 v 59.734433 c 0,37.504842 -0.084,59.939782 -0.22529,60.286222 -0.48697,1.19267 -0.82599,1.23115 -10.76829,1.22159 -7.70276,-0.007 -9.23684,-0.0608 -9.79193,-0.34111 z m 39.00226,0.0393 c -0.47199,-0.19376 -0.82859,-0.55532 -1.00044,-1.01434 -0.19656,-0.52505 -0.26703,-16.35499 -0.26703,-59.981077 0,-63.796564 -0.0648,-60.388464 1.15938,-60.99851 0.3422,-0.170511 2.74863,-0.226219 7.86595,-0.182033 l 7.37292,0.06357 0.86429,0.614128 c 0.47535,0.337766 1.00368,0.880287 1.17413,1.205587 0.17033,0.325309 4.64597,13.080396 9.94569,28.344618 l 9.63582,27.753239 0.11779,-28.301145 c 0.1241,-29.854407 0.089,-28.964524 1.16696,-29.501734 0.28493,-0.14202 3.86939,-0.224221 9.77565,-0.224221 9.86382,0 10.34598,0.04587 10.86285,1.033096 0.23194,0.44301 0.42628,117.236742 0.19808,119.040602 -0.0947,0.74956 -0.34043,1.36799 -0.69642,1.75358 l -0.54991,0.59563 -6.78867,0.0686 c -4.22308,0.0427 -7.10256,-0.0179 -7.61926,-0.15861 -0.45681,-0.12503 -1.18348,-0.56637 -1.61475,-0.9807 -0.72422,-0.69578 -1.53747,-2.9458 -10.63839,-29.43331 -5.41981,-15.773941 -9.95616,-28.877205 -10.08074,-29.118322 -0.14637,-0.28337 -0.23223,9.962543 -0.24253,28.976912 l -0.0154,29.41532 -0.56796,0.61501 -0.56794,0.61503 -9.37798,0.05 c -7.53006,0.0402 -9.52249,-0.009 -10.11144,-0.25104 z m 77.20703,0.0933 c -0.27749,-0.10433 -0.6747,-0.41588 -0.88278,-0.69247 -0.34529,-0.45901 -0.37763,-5.73823 -0.3708,-60.460005 0.005,-46.785536 0.0704,-60.033489 0.29424,-60.304887 0.70865,-0.859355 0.66521,-0.857721 22.73953,-0.857721 h 21.42436 l 0.66046,0.529027 0.66053,0.529009 v 9.109675 9.109665 l -0.53607,0.499288 -0.53602,0.499298 -11.41086,0.06092 -11.41084,0.0609 v 12.59793 12.597903 l 9.35741,9.18e-4 c 5.7576,6.24e-4 9.69687,0.08898 10.23982,0.229403 1.58717,0.410446 1.58935,0.424316 1.58935,10.050533 0,5.611375 -0.0865,8.726447 -0.25216,9.064699 -0.56088,1.146301 -0.54472,1.144531 -11.10619,1.213137 l -9.82823,0.06394 v 17.965618 17.96533 h 11.31761 11.31764 l 0.68811,0.64073 0.68807,0.64073 v 8.66492 c 0,6.25111 -0.0783,8.82504 -0.2812,9.23969 -0.60934,1.2453 0.24583,1.20066 -22.71805,1.18557 -11.62672,-0.007 -21.36649,-0.0991 -21.64393,-0.20346 z"
       id="path28"
       inkscape:export-xdpi="600"
       inkscape:export-ydpi="600" />
  </g>
</svg>
